<mxfile host="65bd71144e">
    <diagram id="bgTYFs2IumKFl9v2_c2F" name="Page-1">
        <mxGraphModel dx="1238" dy="1774" grid="1" gridSize="10" guides="1" tooltips="1" connect="1" arrows="1" fold="1" page="1" pageScale="1" pageWidth="827" pageHeight="1169" math="0" shadow="0">
            <root>
                <mxCell id="0"/>
                <mxCell id="1" parent="0"/>
                <mxCell id="2" value="" style="shape=cylinder3;whiteSpace=wrap;html=1;boundedLbl=1;backgroundOutline=1;size=15;" vertex="1" parent="1">
                    <mxGeometry x="90" y="230" width="200" height="250" as="geometry"/>
                </mxCell>
                <mxCell id="3" value="(0-512) load&amp;nbsp;" style="rounded=0;whiteSpace=wrap;html=1;align=left;" vertex="1" parent="1">
                    <mxGeometry x="110" y="280" width="160" height="30" as="geometry"/>
                </mxCell>
                <mxCell id="4" value="(513-4К)" style="rounded=0;whiteSpace=wrap;html=1;align=left;" vertex="1" parent="1">
                    <mxGeometry x="110" y="310" width="160" height="30" as="geometry"/>
                </mxCell>
                <mxCell id="5" value="" style="rounded=0;whiteSpace=wrap;html=1;" vertex="1" parent="1">
                    <mxGeometry x="110" y="340" width="160" height="30" as="geometry"/>
                </mxCell>
                <mxCell id="6" value="" style="rounded=0;whiteSpace=wrap;html=1;" vertex="1" parent="1">
                    <mxGeometry x="110" y="370" width="160" height="80" as="geometry"/>
                </mxCell>
                <mxCell id="7" value="страница 0" style="text;html=1;strokeColor=none;fillColor=none;align=center;verticalAlign=middle;whiteSpace=wrap;rounded=0;" vertex="1" parent="1">
                    <mxGeometry x="300" y="300" width="80" height="20" as="geometry"/>
                </mxCell>
                <mxCell id="8" value="" style="shape=curlyBracket;whiteSpace=wrap;html=1;rounded=1;flipH=1;" vertex="1" parent="1">
                    <mxGeometry x="270" y="280" width="20" height="60" as="geometry"/>
                </mxCell>
                <mxCell id="9" value="" style="shape=curlyBracket;whiteSpace=wrap;html=1;rounded=1;flipH=1;" vertex="1" parent="1">
                    <mxGeometry x="270" y="340" width="20" height="60" as="geometry"/>
                </mxCell>
                <mxCell id="12" value="" style="shape=curlyBracket;whiteSpace=wrap;html=1;rounded=1;flipH=1;" vertex="1" parent="1">
                    <mxGeometry x="270" y="400" width="20" height="50" as="geometry"/>
                </mxCell>
                <mxCell id="13" value="страница 1" style="text;html=1;strokeColor=none;fillColor=none;align=center;verticalAlign=middle;whiteSpace=wrap;rounded=0;" vertex="1" parent="1">
                    <mxGeometry x="300" y="360" width="80" height="20" as="geometry"/>
                </mxCell>
                <mxCell id="14" value="страница 2" style="text;html=1;strokeColor=none;fillColor=none;align=center;verticalAlign=middle;whiteSpace=wrap;rounded=0;" vertex="1" parent="1">
                    <mxGeometry x="300" y="415" width="80" height="20" as="geometry"/>
                </mxCell>
                <mxCell id="15" value="2" style="rounded=0;whiteSpace=wrap;html=1;" vertex="1" parent="1">
                    <mxGeometry x="350" y="70" width="50" height="20" as="geometry"/>
                </mxCell>
                <mxCell id="16" value="Таблица страниц" style="text;html=1;strokeColor=none;fillColor=none;align=center;verticalAlign=middle;whiteSpace=wrap;rounded=0;" vertex="1" parent="1">
                    <mxGeometry x="300" y="40" width="210" height="20" as="geometry"/>
                </mxCell>
                <mxCell id="17" value="Карта файла" style="text;html=1;strokeColor=none;fillColor=none;align=center;verticalAlign=middle;whiteSpace=wrap;rounded=0;" vertex="1" parent="1">
                    <mxGeometry x="-180" y="90" width="160" height="20" as="geometry"/>
                </mxCell>
                <mxCell id="18" value="0" style="rounded=0;whiteSpace=wrap;html=1;align=left;" vertex="1" parent="1">
                    <mxGeometry x="-150" y="120" width="130" height="20" as="geometry"/>
                </mxCell>
                <mxCell id="19" value="1" style="rounded=0;whiteSpace=wrap;html=1;align=left;" vertex="1" parent="1">
                    <mxGeometry x="-150" y="140" width="130" height="20" as="geometry"/>
                </mxCell>
                <mxCell id="20" value="2" style="rounded=0;whiteSpace=wrap;html=1;align=left;" vertex="1" parent="1">
                    <mxGeometry x="-150" y="160" width="130" height="20" as="geometry"/>
                </mxCell>
                <mxCell id="22" value="" style="endArrow=classic;html=1;exitX=1;exitY=0.5;exitDx=0;exitDy=0;entryX=0;entryY=0;entryDx=0;entryDy=0;" edge="1" parent="1" source="18" target="3">
                    <mxGeometry width="50" height="50" relative="1" as="geometry">
                        <mxPoint x="10" y="170" as="sourcePoint"/>
                        <mxPoint x="60" y="120" as="targetPoint"/>
                    </mxGeometry>
                </mxCell>
                <mxCell id="23" value="" style="endArrow=classic;html=1;exitX=1;exitY=0.5;exitDx=0;exitDy=0;entryX=0;entryY=0;entryDx=0;entryDy=0;" edge="1" parent="1" source="19" target="5">
                    <mxGeometry width="50" height="50" relative="1" as="geometry">
                        <mxPoint x="-10" y="330" as="sourcePoint"/>
                        <mxPoint x="40" y="280" as="targetPoint"/>
                    </mxGeometry>
                </mxCell>
                <mxCell id="24" value="" style="endArrow=classic;html=1;exitX=1;exitY=0.5;exitDx=0;exitDy=0;entryX=0;entryY=0.5;entryDx=0;entryDy=0;" edge="1" parent="1" source="20" target="6">
                    <mxGeometry width="50" height="50" relative="1" as="geometry">
                        <mxPoint x="-50" y="400" as="sourcePoint"/>
                        <mxPoint y="350" as="targetPoint"/>
                    </mxGeometry>
                </mxCell>
                <mxCell id="25" value="0" style="rounded=0;whiteSpace=wrap;html=1;" vertex="1" parent="1">
                    <mxGeometry x="319" y="70" width="31" height="20" as="geometry"/>
                </mxCell>
                <mxCell id="26" value="1" style="rounded=0;whiteSpace=wrap;html=1;" vertex="1" parent="1">
                    <mxGeometry x="319" y="90" width="31" height="20" as="geometry"/>
                </mxCell>
                <mxCell id="27" value="2" style="rounded=0;whiteSpace=wrap;html=1;" vertex="1" parent="1">
                    <mxGeometry x="319" y="110" width="31" height="20" as="geometry"/>
                </mxCell>
                <mxCell id="28" value="4" style="rounded=0;whiteSpace=wrap;html=1;" vertex="1" parent="1">
                    <mxGeometry x="350" y="90" width="50" height="20" as="geometry"/>
                </mxCell>
                <mxCell id="29" value="" style="rounded=0;whiteSpace=wrap;html=1;" vertex="1" parent="1">
                    <mxGeometry x="350" y="110" width="50" height="20" as="geometry"/>
                </mxCell>
                <mxCell id="30" value="0" style="rounded=0;whiteSpace=wrap;html=1;" vertex="1" parent="1">
                    <mxGeometry x="400" y="70" width="20" height="20" as="geometry"/>
                </mxCell>
                <mxCell id="31" value="0" style="rounded=0;whiteSpace=wrap;html=1;" vertex="1" parent="1">
                    <mxGeometry x="400" y="90" width="20" height="20" as="geometry"/>
                </mxCell>
                <mxCell id="32" value="1" style="rounded=0;whiteSpace=wrap;html=1;" vertex="1" parent="1">
                    <mxGeometry x="400" y="110" width="20" height="20" as="geometry"/>
                </mxCell>
                <mxCell id="55" style="edgeStyle=orthogonalEdgeStyle;rounded=0;orthogonalLoop=1;jettySize=auto;html=1;entryX=0;entryY=0.5;entryDx=0;entryDy=0;" edge="1" parent="1" source="33" target="44">
                    <mxGeometry relative="1" as="geometry">
                        <Array as="points">
                            <mxPoint x="630" y="80"/>
                            <mxPoint x="630" y="100"/>
                        </Array>
                    </mxGeometry>
                </mxCell>
                <mxCell id="33" value="" style="rounded=0;whiteSpace=wrap;html=1;" vertex="1" parent="1">
                    <mxGeometry x="420" y="70" width="80" height="20" as="geometry"/>
                </mxCell>
                <mxCell id="56" style="edgeStyle=orthogonalEdgeStyle;rounded=0;orthogonalLoop=1;jettySize=auto;html=1;entryX=0;entryY=0.5;entryDx=0;entryDy=0;" edge="1" parent="1" source="34" target="46">
                    <mxGeometry relative="1" as="geometry"/>
                </mxCell>
                <mxCell id="34" value="" style="rounded=0;whiteSpace=wrap;html=1;" vertex="1" parent="1">
                    <mxGeometry x="420" y="90" width="80" height="20" as="geometry"/>
                </mxCell>
                <mxCell id="54" style="edgeStyle=orthogonalEdgeStyle;rounded=0;orthogonalLoop=1;jettySize=auto;html=1;exitX=1;exitY=0.5;exitDx=0;exitDy=0;entryX=1;entryY=0.5;entryDx=0;entryDy=0;" edge="1" parent="1" source="35" target="14">
                    <mxGeometry relative="1" as="geometry"/>
                </mxCell>
                <mxCell id="35" value="" style="rounded=0;whiteSpace=wrap;html=1;" vertex="1" parent="1">
                    <mxGeometry x="420" y="110" width="80" height="20" as="geometry"/>
                </mxCell>
                <mxCell id="36" value="ОС" style="rounded=0;whiteSpace=wrap;html=1;" vertex="1" parent="1">
                    <mxGeometry x="720" y="40" width="120" height="60" as="geometry"/>
                </mxCell>
                <mxCell id="37" value="" style="rounded=0;whiteSpace=wrap;html=1;" vertex="1" parent="1">
                    <mxGeometry x="720" y="100" width="120" height="60" as="geometry"/>
                </mxCell>
                <mxCell id="38" value="" style="rounded=0;whiteSpace=wrap;html=1;" vertex="1" parent="1">
                    <mxGeometry x="720" y="160" width="120" height="60" as="geometry"/>
                </mxCell>
                <mxCell id="39" value="" style="rounded=0;whiteSpace=wrap;html=1;" vertex="1" parent="1">
                    <mxGeometry x="720" y="220" width="120" height="60" as="geometry"/>
                </mxCell>
                <mxCell id="40" value="" style="rounded=0;whiteSpace=wrap;html=1;" vertex="1" parent="1">
                    <mxGeometry x="720" y="280" width="120" height="60" as="geometry"/>
                </mxCell>
                <mxCell id="41" value="" style="rounded=0;whiteSpace=wrap;html=1;" vertex="1" parent="1">
                    <mxGeometry x="720" y="340" width="120" height="60" as="geometry"/>
                </mxCell>
                <mxCell id="42" value="" style="rounded=0;whiteSpace=wrap;html=1;" vertex="1" parent="1">
                    <mxGeometry x="720" y="400" width="120" height="140" as="geometry"/>
                </mxCell>
                <mxCell id="43" value="0" style="text;html=1;strokeColor=none;fillColor=none;align=center;verticalAlign=middle;whiteSpace=wrap;rounded=0;" vertex="1" parent="1">
                    <mxGeometry x="690" y="30" width="30" height="20" as="geometry"/>
                </mxCell>
                <mxCell id="44" value="8К" style="text;html=1;strokeColor=none;fillColor=none;align=center;verticalAlign=middle;whiteSpace=wrap;rounded=0;" vertex="1" parent="1">
                    <mxGeometry x="690" y="90" width="30" height="20" as="geometry"/>
                </mxCell>
                <mxCell id="45" value="12К" style="text;html=1;strokeColor=none;fillColor=none;align=center;verticalAlign=middle;whiteSpace=wrap;rounded=0;" vertex="1" parent="1">
                    <mxGeometry x="690" y="150" width="30" height="20" as="geometry"/>
                </mxCell>
                <mxCell id="46" value="16К" style="text;html=1;strokeColor=none;fillColor=none;align=center;verticalAlign=middle;whiteSpace=wrap;rounded=0;" vertex="1" parent="1">
                    <mxGeometry x="690" y="210" width="30" height="20" as="geometry"/>
                </mxCell>
                <mxCell id="47" value="20К" style="text;html=1;strokeColor=none;fillColor=none;align=center;verticalAlign=middle;whiteSpace=wrap;rounded=0;" vertex="1" parent="1">
                    <mxGeometry x="690" y="270" width="30" height="20" as="geometry"/>
                </mxCell>
                <mxCell id="50" value="24К" style="text;html=1;strokeColor=none;fillColor=none;align=center;verticalAlign=middle;whiteSpace=wrap;rounded=0;" vertex="1" parent="1">
                    <mxGeometry x="690" y="330" width="30" height="20" as="geometry"/>
                </mxCell>
                <mxCell id="53" style="edgeStyle=orthogonalEdgeStyle;rounded=0;orthogonalLoop=1;jettySize=auto;html=1;entryX=0;entryY=0.5;entryDx=0;entryDy=0;" edge="1" parent="1" source="51" target="25">
                    <mxGeometry relative="1" as="geometry"/>
                </mxCell>
                <mxCell id="51" value="" style="rounded=0;whiteSpace=wrap;html=1;align=left;" vertex="1" parent="1">
                    <mxGeometry x="150" width="70" height="20" as="geometry"/>
                </mxCell>
                <mxCell id="52" value="Регистр начального адреса таблицы страниц" style="text;html=1;strokeColor=none;fillColor=none;align=center;verticalAlign=middle;whiteSpace=wrap;rounded=0;" vertex="1" parent="1">
                    <mxGeometry x="130" y="-30" width="150" height="20" as="geometry"/>
                </mxCell>
            </root>
        </mxGraphModel>
    </diagram>
    <diagram id="0my8GOr8G9NknckTtCa-" name="Page-2">
        <mxGraphModel dx="411" dy="605" grid="1" gridSize="10" guides="1" tooltips="1" connect="1" arrows="1" fold="1" page="1" pageScale="1" pageWidth="827" pageHeight="1169" math="0" shadow="0">
            <root>
                <mxCell id="H_qwsBwrsd4Im2VC6lP7-0"/>
                <mxCell id="H_qwsBwrsd4Im2VC6lP7-1" parent="H_qwsBwrsd4Im2VC6lP7-0"/>
                <mxCell id="H_qwsBwrsd4Im2VC6lP7-9" style="edgeStyle=orthogonalEdgeStyle;rounded=0;orthogonalLoop=1;jettySize=auto;html=1;" edge="1" parent="H_qwsBwrsd4Im2VC6lP7-1" source="H_qwsBwrsd4Im2VC6lP7-2" target="H_qwsBwrsd4Im2VC6lP7-8">
                    <mxGeometry relative="1" as="geometry"/>
                </mxCell>
                <mxCell id="H_qwsBwrsd4Im2VC6lP7-2" value="CR3" style="rounded=0;whiteSpace=wrap;html=1;align=center;" vertex="1" parent="H_qwsBwrsd4Im2VC6lP7-1">
                    <mxGeometry x="40" y="180" width="120" height="30" as="geometry"/>
                </mxCell>
                <mxCell id="H_qwsBwrsd4Im2VC6lP7-10" style="edgeStyle=orthogonalEdgeStyle;rounded=0;orthogonalLoop=1;jettySize=auto;html=1;entryX=1;entryY=0.5;entryDx=0;entryDy=0;" edge="1" parent="H_qwsBwrsd4Im2VC6lP7-1" source="H_qwsBwrsd4Im2VC6lP7-3" target="H_qwsBwrsd4Im2VC6lP7-8">
                    <mxGeometry relative="1" as="geometry">
                        <Array as="points">
                            <mxPoint x="290" y="265"/>
                        </Array>
                    </mxGeometry>
                </mxCell>
                <mxCell id="H_qwsBwrsd4Im2VC6lP7-3" value="" style="rounded=0;whiteSpace=wrap;html=1;align=left;" vertex="1" parent="H_qwsBwrsd4Im2VC6lP7-1">
                    <mxGeometry x="250" y="180" width="80" height="30" as="geometry"/>
                </mxCell>
                <mxCell id="H_qwsBwrsd4Im2VC6lP7-22" style="edgeStyle=orthogonalEdgeStyle;rounded=0;orthogonalLoop=1;jettySize=auto;html=1;entryX=0.5;entryY=0;entryDx=0;entryDy=0;" edge="1" parent="H_qwsBwrsd4Im2VC6lP7-1" source="H_qwsBwrsd4Im2VC6lP7-4" target="H_qwsBwrsd4Im2VC6lP7-21">
                    <mxGeometry relative="1" as="geometry"/>
                </mxCell>
                <mxCell id="H_qwsBwrsd4Im2VC6lP7-4" value="" style="rounded=0;whiteSpace=wrap;html=1;align=left;" vertex="1" parent="H_qwsBwrsd4Im2VC6lP7-1">
                    <mxGeometry x="330" y="180" width="80" height="30" as="geometry"/>
                </mxCell>
                <mxCell id="H_qwsBwrsd4Im2VC6lP7-31" style="edgeStyle=orthogonalEdgeStyle;rounded=0;orthogonalLoop=1;jettySize=auto;html=1;exitX=0.5;exitY=1;exitDx=0;exitDy=0;entryX=0.5;entryY=0;entryDx=0;entryDy=0;" edge="1" parent="H_qwsBwrsd4Im2VC6lP7-1" source="H_qwsBwrsd4Im2VC6lP7-5" target="H_qwsBwrsd4Im2VC6lP7-29">
                    <mxGeometry relative="1" as="geometry"/>
                </mxCell>
                <mxCell id="H_qwsBwrsd4Im2VC6lP7-5" value="" style="rounded=0;whiteSpace=wrap;html=1;align=left;" vertex="1" parent="H_qwsBwrsd4Im2VC6lP7-1">
                    <mxGeometry x="410" y="180" width="80" height="30" as="geometry"/>
                </mxCell>
                <mxCell id="H_qwsBwrsd4Im2VC6lP7-6" value="31" style="text;html=1;strokeColor=none;fillColor=none;align=center;verticalAlign=middle;whiteSpace=wrap;rounded=0;" vertex="1" parent="H_qwsBwrsd4Im2VC6lP7-1">
                    <mxGeometry x="230" y="150" width="40" height="20" as="geometry"/>
                </mxCell>
                <mxCell id="H_qwsBwrsd4Im2VC6lP7-7" value="0" style="text;html=1;strokeColor=none;fillColor=none;align=center;verticalAlign=middle;whiteSpace=wrap;rounded=0;" vertex="1" parent="H_qwsBwrsd4Im2VC6lP7-1">
                    <mxGeometry x="470" y="150" width="40" height="20" as="geometry"/>
                </mxCell>
                <mxCell id="H_qwsBwrsd4Im2VC6lP7-12" style="edgeStyle=orthogonalEdgeStyle;rounded=0;orthogonalLoop=1;jettySize=auto;html=1;exitX=0.5;exitY=1;exitDx=0;exitDy=0;entryX=0;entryY=0.339;entryDx=0;entryDy=0;entryPerimeter=0;" edge="1" parent="H_qwsBwrsd4Im2VC6lP7-1" source="H_qwsBwrsd4Im2VC6lP7-8" target="H_qwsBwrsd4Im2VC6lP7-11">
                    <mxGeometry relative="1" as="geometry"/>
                </mxCell>
                <mxCell id="H_qwsBwrsd4Im2VC6lP7-8" value="+" style="ellipse;whiteSpace=wrap;html=1;aspect=fixed;align=center;" vertex="1" parent="H_qwsBwrsd4Im2VC6lP7-1">
                    <mxGeometry x="90" y="250" width="30" height="30" as="geometry"/>
                </mxCell>
                <mxCell id="H_qwsBwrsd4Im2VC6lP7-11" value="" style="rounded=0;whiteSpace=wrap;html=1;align=left;" vertex="1" parent="H_qwsBwrsd4Im2VC6lP7-1">
                    <mxGeometry x="200" y="310" width="110" height="280" as="geometry"/>
                </mxCell>
                <mxCell id="H_qwsBwrsd4Im2VC6lP7-20" style="edgeStyle=orthogonalEdgeStyle;rounded=0;orthogonalLoop=1;jettySize=auto;html=1;entryX=0;entryY=0.5;entryDx=0;entryDy=0;" edge="1" parent="H_qwsBwrsd4Im2VC6lP7-1" source="H_qwsBwrsd4Im2VC6lP7-13" target="H_qwsBwrsd4Im2VC6lP7-19">
                    <mxGeometry relative="1" as="geometry"/>
                </mxCell>
                <mxCell id="H_qwsBwrsd4Im2VC6lP7-13" value="PFN" style="rounded=0;whiteSpace=wrap;html=1;align=center;" vertex="1" parent="H_qwsBwrsd4Im2VC6lP7-1">
                    <mxGeometry x="200" y="390" width="110" height="30" as="geometry"/>
                </mxCell>
                <mxCell id="H_qwsBwrsd4Im2VC6lP7-15" style="edgeStyle=orthogonalEdgeStyle;rounded=0;orthogonalLoop=1;jettySize=auto;html=1;exitX=1;exitY=0.25;exitDx=0;exitDy=0;entryX=0.5;entryY=1;entryDx=0;entryDy=0;" edge="1" parent="H_qwsBwrsd4Im2VC6lP7-1" source="H_qwsBwrsd4Im2VC6lP7-14" target="H_qwsBwrsd4Im2VC6lP7-13">
                    <mxGeometry relative="1" as="geometry"/>
                </mxCell>
                <mxCell id="H_qwsBwrsd4Im2VC6lP7-14" value="PDE (4byte)" style="text;html=1;strokeColor=none;fillColor=none;align=center;verticalAlign=middle;whiteSpace=wrap;rounded=0;" vertex="1" parent="H_qwsBwrsd4Im2VC6lP7-1">
                    <mxGeometry x="70" y="440" width="40" height="20" as="geometry"/>
                </mxCell>
                <mxCell id="H_qwsBwrsd4Im2VC6lP7-16" value="" style="rounded=0;whiteSpace=wrap;html=1;align=left;" vertex="1" parent="H_qwsBwrsd4Im2VC6lP7-1">
                    <mxGeometry x="430" y="380" width="120" height="200" as="geometry"/>
                </mxCell>
                <mxCell id="H_qwsBwrsd4Im2VC6lP7-17" value="" style="rounded=0;whiteSpace=wrap;html=1;align=left;" vertex="1" parent="H_qwsBwrsd4Im2VC6lP7-1">
                    <mxGeometry x="410" y="400" width="120" height="200" as="geometry"/>
                </mxCell>
                <mxCell id="H_qwsBwrsd4Im2VC6lP7-18" value="" style="rounded=0;whiteSpace=wrap;html=1;align=left;" vertex="1" parent="H_qwsBwrsd4Im2VC6lP7-1">
                    <mxGeometry x="390" y="420" width="120" height="200" as="geometry"/>
                </mxCell>
                <mxCell id="H_qwsBwrsd4Im2VC6lP7-30" style="edgeStyle=orthogonalEdgeStyle;rounded=0;orthogonalLoop=1;jettySize=auto;html=1;" edge="1" parent="H_qwsBwrsd4Im2VC6lP7-1" source="H_qwsBwrsd4Im2VC6lP7-19" target="H_qwsBwrsd4Im2VC6lP7-29">
                    <mxGeometry relative="1" as="geometry"/>
                </mxCell>
                <mxCell id="H_qwsBwrsd4Im2VC6lP7-19" value="PFN" style="rounded=0;whiteSpace=wrap;html=1;align=center;" vertex="1" parent="H_qwsBwrsd4Im2VC6lP7-1">
                    <mxGeometry x="390" y="470" width="120" height="30" as="geometry"/>
                </mxCell>
                <mxCell id="H_qwsBwrsd4Im2VC6lP7-21" value="+" style="ellipse;whiteSpace=wrap;html=1;aspect=fixed;align=center;" vertex="1" parent="H_qwsBwrsd4Im2VC6lP7-1">
                    <mxGeometry x="340" y="390" width="30" height="30" as="geometry"/>
                </mxCell>
                <mxCell id="H_qwsBwrsd4Im2VC6lP7-24" style="edgeStyle=orthogonalEdgeStyle;rounded=0;orthogonalLoop=1;jettySize=auto;html=1;entryX=0.5;entryY=1;entryDx=0;entryDy=0;" edge="1" parent="H_qwsBwrsd4Im2VC6lP7-1" source="H_qwsBwrsd4Im2VC6lP7-23" target="H_qwsBwrsd4Im2VC6lP7-19">
                    <mxGeometry relative="1" as="geometry"/>
                </mxCell>
                <mxCell id="H_qwsBwrsd4Im2VC6lP7-23" value="PTE&lt;br&gt;(4byte)" style="text;html=1;strokeColor=none;fillColor=none;align=center;verticalAlign=middle;whiteSpace=wrap;rounded=0;" vertex="1" parent="H_qwsBwrsd4Im2VC6lP7-1">
                    <mxGeometry x="250" y="650" width="40" height="20" as="geometry"/>
                </mxCell>
                <mxCell id="H_qwsBwrsd4Im2VC6lP7-25" value="Page directory entry" style="text;html=1;strokeColor=none;fillColor=none;align=center;verticalAlign=middle;whiteSpace=wrap;rounded=0;" vertex="1" parent="H_qwsBwrsd4Im2VC6lP7-1">
                    <mxGeometry x="30" y="470" width="150" height="20" as="geometry"/>
                </mxCell>
                <mxCell id="H_qwsBwrsd4Im2VC6lP7-26" value="Page&lt;br&gt;frame&lt;br&gt;number" style="text;html=1;strokeColor=none;fillColor=none;align=center;verticalAlign=middle;whiteSpace=wrap;rounded=0;" vertex="1" parent="H_qwsBwrsd4Im2VC6lP7-1">
                    <mxGeometry x="230" y="340" width="40" height="20" as="geometry"/>
                </mxCell>
                <mxCell id="H_qwsBwrsd4Im2VC6lP7-27" value="Page table entry" style="text;html=1;strokeColor=none;fillColor=none;align=center;verticalAlign=middle;whiteSpace=wrap;rounded=0;" vertex="1" parent="H_qwsBwrsd4Im2VC6lP7-1">
                    <mxGeometry x="225" y="690" width="115" height="20" as="geometry"/>
                </mxCell>
                <mxCell id="H_qwsBwrsd4Im2VC6lP7-28" value="" style="rounded=0;whiteSpace=wrap;html=1;align=left;" vertex="1" parent="H_qwsBwrsd4Im2VC6lP7-1">
                    <mxGeometry x="680" y="220" width="120" height="690" as="geometry"/>
                </mxCell>
                <mxCell id="H_qwsBwrsd4Im2VC6lP7-32" style="edgeStyle=orthogonalEdgeStyle;rounded=0;orthogonalLoop=1;jettySize=auto;html=1;exitX=1;exitY=0.5;exitDx=0;exitDy=0;" edge="1" parent="H_qwsBwrsd4Im2VC6lP7-1" source="H_qwsBwrsd4Im2VC6lP7-29" target="H_qwsBwrsd4Im2VC6lP7-28">
                    <mxGeometry relative="1" as="geometry"/>
                </mxCell>
                <mxCell id="H_qwsBwrsd4Im2VC6lP7-29" value="+" style="ellipse;whiteSpace=wrap;html=1;aspect=fixed;align=center;" vertex="1" parent="H_qwsBwrsd4Im2VC6lP7-1">
                    <mxGeometry x="600" y="470" width="30" height="30" as="geometry"/>
                </mxCell>
                <mxCell id="H_qwsBwrsd4Im2VC6lP7-33" value="" style="rounded=0;whiteSpace=wrap;html=1;align=left;" vertex="1" parent="H_qwsBwrsd4Im2VC6lP7-1">
                    <mxGeometry x="680" y="540" width="120" height="60" as="geometry"/>
                </mxCell>
                <mxCell id="H_qwsBwrsd4Im2VC6lP7-34" value="Страница" style="text;html=1;strokeColor=none;fillColor=none;align=center;verticalAlign=middle;whiteSpace=wrap;rounded=0;" vertex="1" parent="H_qwsBwrsd4Im2VC6lP7-1">
                    <mxGeometry x="827" y="560" width="93" height="25" as="geometry"/>
                </mxCell>
                <mxCell id="H_qwsBwrsd4Im2VC6lP7-35" value="Каталог таблицы страниц" style="text;html=1;strokeColor=none;fillColor=none;align=center;verticalAlign=middle;whiteSpace=wrap;rounded=0;" vertex="1" parent="H_qwsBwrsd4Im2VC6lP7-1">
                    <mxGeometry x="195" y="600" width="120" height="20" as="geometry"/>
                </mxCell>
                <mxCell id="H_qwsBwrsd4Im2VC6lP7-36" value="1024 таблиц" style="text;html=1;strokeColor=none;fillColor=none;align=center;verticalAlign=middle;whiteSpace=wrap;rounded=0;" vertex="1" parent="H_qwsBwrsd4Im2VC6lP7-1">
                    <mxGeometry x="530" y="610" width="100" height="20" as="geometry"/>
                </mxCell>
            </root>
        </mxGraphModel>
    </diagram>
    <diagram id="UQl4tUhRNE-Cca_m9DbE" name="Page-3">
        <mxGraphModel dx="411" dy="605" grid="1" gridSize="10" guides="1" tooltips="1" connect="1" arrows="1" fold="1" page="1" pageScale="1" pageWidth="827" pageHeight="1169" math="0" shadow="0">
            <root>
                <mxCell id="Kkr0_vWMeMTgJf7T8DXX-0"/>
                <mxCell id="Kkr0_vWMeMTgJf7T8DXX-1" parent="Kkr0_vWMeMTgJf7T8DXX-0"/>
                <mxCell id="Kkr0_vWMeMTgJf7T8DXX-2" value="2ГБ" style="rounded=0;whiteSpace=wrap;html=1;align=center;" vertex="1" parent="Kkr0_vWMeMTgJf7T8DXX-1">
                    <mxGeometry x="110" y="120" width="120" height="60" as="geometry"/>
                </mxCell>
                <mxCell id="Kkr0_vWMeMTgJf7T8DXX-3" value="2ГБ" style="rounded=0;whiteSpace=wrap;html=1;align=center;" vertex="1" parent="Kkr0_vWMeMTgJf7T8DXX-1">
                    <mxGeometry x="160" y="200" width="120" height="60" as="geometry"/>
                </mxCell>
                <mxCell id="Kkr0_vWMeMTgJf7T8DXX-4" value="2ГБ" style="rounded=0;whiteSpace=wrap;html=1;align=center;" vertex="1" parent="Kkr0_vWMeMTgJf7T8DXX-1">
                    <mxGeometry x="140" y="210" width="120" height="60" as="geometry"/>
                </mxCell>
                <mxCell id="Kkr0_vWMeMTgJf7T8DXX-5" value="2ГБ" style="rounded=0;whiteSpace=wrap;html=1;align=center;" vertex="1" parent="Kkr0_vWMeMTgJf7T8DXX-1">
                    <mxGeometry x="120" y="220" width="120" height="60" as="geometry"/>
                </mxCell>
                <mxCell id="Kkr0_vWMeMTgJf7T8DXX-6" value="2ГБ&lt;br&gt;user space" style="rounded=0;whiteSpace=wrap;html=1;align=center;" vertex="1" parent="Kkr0_vWMeMTgJf7T8DXX-1">
                    <mxGeometry x="100" y="230" width="120" height="60" as="geometry"/>
                </mxCell>
                <mxCell id="Kkr0_vWMeMTgJf7T8DXX-7" value="" style="endArrow=classic;html=1;" edge="1" parent="Kkr0_vWMeMTgJf7T8DXX-1">
                    <mxGeometry width="50" height="50" relative="1" as="geometry">
                        <mxPoint x="60" y="350" as="sourcePoint"/>
                        <mxPoint x="60" y="108.33334350585938" as="targetPoint"/>
                    </mxGeometry>
                </mxCell>
                <mxCell id="Kkr0_vWMeMTgJf7T8DXX-8" value="макс. адрес" style="text;html=1;strokeColor=none;fillColor=none;align=center;verticalAlign=middle;whiteSpace=wrap;rounded=0;" vertex="1" parent="Kkr0_vWMeMTgJf7T8DXX-1">
                    <mxGeometry x="30" y="80" width="40" height="20" as="geometry"/>
                </mxCell>
                <mxCell id="Kkr0_vWMeMTgJf7T8DXX-9" value="мин.&lt;br&gt;адрес" style="text;html=1;strokeColor=none;fillColor=none;align=center;verticalAlign=middle;whiteSpace=wrap;rounded=0;" vertex="1" parent="Kkr0_vWMeMTgJf7T8DXX-1">
                    <mxGeometry x="30" y="360" width="40" height="20" as="geometry"/>
                </mxCell>
                <mxCell id="Kkr0_vWMeMTgJf7T8DXX-10" value="1ГБ" style="rounded=0;whiteSpace=wrap;html=1;align=center;" vertex="1" parent="Kkr0_vWMeMTgJf7T8DXX-1">
                    <mxGeometry x="360" y="120" width="120" height="30" as="geometry"/>
                </mxCell>
                <mxCell id="Kkr0_vWMeMTgJf7T8DXX-11" value="1ГБ" style="rounded=0;whiteSpace=wrap;html=1;align=center;" vertex="1" parent="Kkr0_vWMeMTgJf7T8DXX-1">
                    <mxGeometry x="390" y="170" width="120" height="110" as="geometry"/>
                </mxCell>
                <mxCell id="Kkr0_vWMeMTgJf7T8DXX-12" value="1ГБ" style="rounded=0;whiteSpace=wrap;html=1;align=center;" vertex="1" parent="Kkr0_vWMeMTgJf7T8DXX-1">
                    <mxGeometry x="370" y="185" width="120" height="110" as="geometry"/>
                </mxCell>
                <mxCell id="Kkr0_vWMeMTgJf7T8DXX-13" value="1ГБ" style="rounded=0;whiteSpace=wrap;html=1;align=center;" vertex="1" parent="Kkr0_vWMeMTgJf7T8DXX-1">
                    <mxGeometry x="354" y="200" width="120" height="110" as="geometry"/>
                </mxCell>
                <mxCell id="Kkr0_vWMeMTgJf7T8DXX-14" value="3ГБ" style="rounded=0;whiteSpace=wrap;html=1;align=center;" vertex="1" parent="Kkr0_vWMeMTgJf7T8DXX-1">
                    <mxGeometry x="340" y="220" width="120" height="110" as="geometry"/>
                </mxCell>
                <mxCell id="Kkr0_vWMeMTgJf7T8DXX-15" value="структура 1&lt;br&gt;(по умолчанию)" style="text;html=1;strokeColor=none;fillColor=none;align=center;verticalAlign=middle;whiteSpace=wrap;rounded=0;" vertex="1" parent="Kkr0_vWMeMTgJf7T8DXX-1">
                    <mxGeometry x="140" y="40" width="90" height="20" as="geometry"/>
                </mxCell>
                <mxCell id="Kkr0_vWMeMTgJf7T8DXX-16" value="структура 2" style="text;html=1;strokeColor=none;fillColor=none;align=center;verticalAlign=middle;whiteSpace=wrap;rounded=0;" vertex="1" parent="Kkr0_vWMeMTgJf7T8DXX-1">
                    <mxGeometry x="369" y="40" width="90" height="20" as="geometry"/>
                </mxCell>
                <mxCell id="Kkr0_vWMeMTgJf7T8DXX-17" value="Необходимо устанавливать параметр&lt;br&gt;increase user ia" style="text;html=1;strokeColor=none;fillColor=none;align=left;verticalAlign=middle;whiteSpace=wrap;rounded=0;" vertex="1" parent="Kkr0_vWMeMTgJf7T8DXX-1">
                    <mxGeometry x="350" y="360" width="280" height="40" as="geometry"/>
                </mxCell>
            </root>
        </mxGraphModel>
    </diagram>
    <diagram id="gKxQqtma6NzbZ7FleySJ" name="Page-4">
        <mxGraphModel dx="1238" dy="605" grid="1" gridSize="10" guides="1" tooltips="1" connect="1" arrows="1" fold="1" page="1" pageScale="1" pageWidth="827" pageHeight="1169" math="0" shadow="0">
            <root>
                <mxCell id="8hIl0CC6JlZEm_kitmmf-0"/>
                <mxCell id="8hIl0CC6JlZEm_kitmmf-1" parent="8hIl0CC6JlZEm_kitmmf-0"/>
                <mxCell id="8hIl0CC6JlZEm_kitmmf-2" value="2рр" style="text;html=1;strokeColor=none;fillColor=none;align=center;verticalAlign=middle;whiteSpace=wrap;rounded=0;" vertex="1" parent="8hIl0CC6JlZEm_kitmmf-1">
                    <mxGeometry x="120" y="20" width="40" height="20" as="geometry"/>
                </mxCell>
                <mxCell id="8hIl0CC6JlZEm_kitmmf-3" value="9рр" style="text;html=1;strokeColor=none;fillColor=none;align=center;verticalAlign=middle;whiteSpace=wrap;rounded=0;" vertex="1" parent="8hIl0CC6JlZEm_kitmmf-1">
                    <mxGeometry x="190" y="20" width="40" height="20" as="geometry"/>
                </mxCell>
                <mxCell id="8hIl0CC6JlZEm_kitmmf-4" value="9рр" style="text;html=1;strokeColor=none;fillColor=none;align=center;verticalAlign=middle;whiteSpace=wrap;rounded=0;" vertex="1" parent="8hIl0CC6JlZEm_kitmmf-1">
                    <mxGeometry x="270" y="20" width="40" height="20" as="geometry"/>
                </mxCell>
                <mxCell id="8hIl0CC6JlZEm_kitmmf-5" value="12рр" style="text;html=1;strokeColor=none;fillColor=none;align=center;verticalAlign=middle;whiteSpace=wrap;rounded=0;" vertex="1" parent="8hIl0CC6JlZEm_kitmmf-1">
                    <mxGeometry x="360" y="20" width="40" height="20" as="geometry"/>
                </mxCell>
                <mxCell id="8hIl0CC6JlZEm_kitmmf-21" style="edgeStyle=orthogonalEdgeStyle;rounded=0;orthogonalLoop=1;jettySize=auto;html=1;entryX=1;entryY=0.5;entryDx=0;entryDy=0;" edge="1" parent="8hIl0CC6JlZEm_kitmmf-1" source="8hIl0CC6JlZEm_kitmmf-6" target="8hIl0CC6JlZEm_kitmmf-19">
                    <mxGeometry relative="1" as="geometry">
                        <Array as="points">
                            <mxPoint x="140" y="145"/>
                        </Array>
                    </mxGeometry>
                </mxCell>
                <mxCell id="8hIl0CC6JlZEm_kitmmf-6" value="" style="rounded=0;whiteSpace=wrap;html=1;align=left;" vertex="1" parent="8hIl0CC6JlZEm_kitmmf-1">
                    <mxGeometry x="120" y="50" width="40" height="20" as="geometry"/>
                </mxCell>
                <mxCell id="8hIl0CC6JlZEm_kitmmf-31" style="edgeStyle=orthogonalEdgeStyle;rounded=0;orthogonalLoop=1;jettySize=auto;html=1;" edge="1" parent="8hIl0CC6JlZEm_kitmmf-1" source="8hIl0CC6JlZEm_kitmmf-7" target="8hIl0CC6JlZEm_kitmmf-29">
                    <mxGeometry relative="1" as="geometry">
                        <mxPoint x="240" y="150" as="targetPoint"/>
                    </mxGeometry>
                </mxCell>
                <mxCell id="8hIl0CC6JlZEm_kitmmf-7" value="" style="rounded=0;whiteSpace=wrap;html=1;align=left;" vertex="1" parent="8hIl0CC6JlZEm_kitmmf-1">
                    <mxGeometry x="160" y="50" width="90" height="20" as="geometry"/>
                </mxCell>
                <mxCell id="8hIl0CC6JlZEm_kitmmf-42" style="edgeStyle=orthogonalEdgeStyle;rounded=0;orthogonalLoop=1;jettySize=auto;html=1;" edge="1" parent="8hIl0CC6JlZEm_kitmmf-1" source="8hIl0CC6JlZEm_kitmmf-8" target="8hIl0CC6JlZEm_kitmmf-41">
                    <mxGeometry relative="1" as="geometry">
                        <Array as="points">
                            <mxPoint x="295" y="150"/>
                            <mxPoint x="425" y="150"/>
                        </Array>
                    </mxGeometry>
                </mxCell>
                <mxCell id="8hIl0CC6JlZEm_kitmmf-8" value="" style="rounded=0;whiteSpace=wrap;html=1;align=left;" vertex="1" parent="8hIl0CC6JlZEm_kitmmf-1">
                    <mxGeometry x="250" y="50" width="90" height="20" as="geometry"/>
                </mxCell>
                <mxCell id="8hIl0CC6JlZEm_kitmmf-50" style="edgeStyle=orthogonalEdgeStyle;rounded=0;orthogonalLoop=1;jettySize=auto;html=1;" edge="1" parent="8hIl0CC6JlZEm_kitmmf-1" source="8hIl0CC6JlZEm_kitmmf-9" target="8hIl0CC6JlZEm_kitmmf-48">
                    <mxGeometry relative="1" as="geometry">
                        <Array as="points">
                            <mxPoint x="385" y="120"/>
                            <mxPoint x="725" y="120"/>
                        </Array>
                    </mxGeometry>
                </mxCell>
                <mxCell id="8hIl0CC6JlZEm_kitmmf-9" value="смещение" style="rounded=0;whiteSpace=wrap;html=1;align=center;" vertex="1" parent="8hIl0CC6JlZEm_kitmmf-1">
                    <mxGeometry x="340" y="50" width="90" height="20" as="geometry"/>
                </mxCell>
                <mxCell id="8hIl0CC6JlZEm_kitmmf-20" style="edgeStyle=orthogonalEdgeStyle;rounded=0;orthogonalLoop=1;jettySize=auto;html=1;" edge="1" parent="8hIl0CC6JlZEm_kitmmf-1" source="8hIl0CC6JlZEm_kitmmf-10" target="8hIl0CC6JlZEm_kitmmf-19">
                    <mxGeometry relative="1" as="geometry"/>
                </mxCell>
                <mxCell id="8hIl0CC6JlZEm_kitmmf-10" value="CR3" style="rounded=0;whiteSpace=wrap;html=1;align=center;" vertex="1" parent="8hIl0CC6JlZEm_kitmmf-1">
                    <mxGeometry x="-40" y="80" width="90" height="20" as="geometry"/>
                </mxCell>
                <mxCell id="8hIl0CC6JlZEm_kitmmf-11" value="CR4" style="rounded=0;whiteSpace=wrap;html=1;align=center;" vertex="1" parent="8hIl0CC6JlZEm_kitmmf-1">
                    <mxGeometry x="870" y="50" width="90" height="20" as="geometry"/>
                </mxCell>
                <mxCell id="8hIl0CC6JlZEm_kitmmf-12" value="PAE - Physical Adress&amp;nbsp;&lt;span&gt;Extension&lt;/span&gt;" style="text;html=1;strokeColor=none;fillColor=none;align=left;verticalAlign=middle;whiteSpace=wrap;rounded=0;" vertex="1" parent="8hIl0CC6JlZEm_kitmmf-1">
                    <mxGeometry x="970" y="80" width="110" height="40" as="geometry"/>
                </mxCell>
                <mxCell id="8hIl0CC6JlZEm_kitmmf-13" value="" style="rounded=0;whiteSpace=wrap;html=1;align=left;" vertex="1" parent="8hIl0CC6JlZEm_kitmmf-1">
                    <mxGeometry x="80" y="170" width="70" height="20" as="geometry"/>
                </mxCell>
                <mxCell id="8hIl0CC6JlZEm_kitmmf-30" style="edgeStyle=orthogonalEdgeStyle;rounded=0;orthogonalLoop=1;jettySize=auto;html=1;" edge="1" parent="8hIl0CC6JlZEm_kitmmf-1" source="8hIl0CC6JlZEm_kitmmf-14" target="8hIl0CC6JlZEm_kitmmf-29">
                    <mxGeometry relative="1" as="geometry"/>
                </mxCell>
                <mxCell id="8hIl0CC6JlZEm_kitmmf-14" value="PFN" style="rounded=0;whiteSpace=wrap;html=1;align=center;" vertex="1" parent="8hIl0CC6JlZEm_kitmmf-1">
                    <mxGeometry x="80" y="190" width="70" height="20" as="geometry"/>
                </mxCell>
                <mxCell id="8hIl0CC6JlZEm_kitmmf-15" value="" style="rounded=0;whiteSpace=wrap;html=1;align=left;" vertex="1" parent="8hIl0CC6JlZEm_kitmmf-1">
                    <mxGeometry x="80" y="210" width="70" height="20" as="geometry"/>
                </mxCell>
                <mxCell id="8hIl0CC6JlZEm_kitmmf-16" value="(8 байт)" style="rounded=0;whiteSpace=wrap;html=1;align=left;" vertex="1" parent="8hIl0CC6JlZEm_kitmmf-1">
                    <mxGeometry x="80" y="230" width="70" height="20" as="geometry"/>
                </mxCell>
                <mxCell id="8hIl0CC6JlZEm_kitmmf-17" value="Таблица указателей на каталоги" style="text;html=1;strokeColor=none;fillColor=none;align=center;verticalAlign=middle;whiteSpace=wrap;rounded=0;" vertex="1" parent="8hIl0CC6JlZEm_kitmmf-1">
                    <mxGeometry x="65" y="290" width="100" height="20" as="geometry"/>
                </mxCell>
                <mxCell id="8hIl0CC6JlZEm_kitmmf-18" value="PDPT" style="text;html=1;strokeColor=none;fillColor=none;align=center;verticalAlign=middle;whiteSpace=wrap;rounded=0;" vertex="1" parent="8hIl0CC6JlZEm_kitmmf-1">
                    <mxGeometry x="90" y="260" width="40" height="20" as="geometry"/>
                </mxCell>
                <mxCell id="8hIl0CC6JlZEm_kitmmf-22" style="edgeStyle=orthogonalEdgeStyle;rounded=0;orthogonalLoop=1;jettySize=auto;html=1;entryX=0;entryY=0.5;entryDx=0;entryDy=0;" edge="1" parent="8hIl0CC6JlZEm_kitmmf-1" source="8hIl0CC6JlZEm_kitmmf-19" target="8hIl0CC6JlZEm_kitmmf-14">
                    <mxGeometry relative="1" as="geometry">
                        <Array as="points">
                            <mxPoint x="5" y="200"/>
                        </Array>
                    </mxGeometry>
                </mxCell>
                <mxCell id="8hIl0CC6JlZEm_kitmmf-19" value="+" style="ellipse;whiteSpace=wrap;html=1;aspect=fixed;align=center;" vertex="1" parent="8hIl0CC6JlZEm_kitmmf-1">
                    <mxGeometry x="-10" y="130" width="30" height="30" as="geometry"/>
                </mxCell>
                <mxCell id="8hIl0CC6JlZEm_kitmmf-23" value="" style="whiteSpace=wrap;html=1;aspect=fixed;align=center;" vertex="1" parent="8hIl0CC6JlZEm_kitmmf-1">
                    <mxGeometry x="270" y="180" width="100" height="100" as="geometry"/>
                </mxCell>
                <mxCell id="8hIl0CC6JlZEm_kitmmf-24" value="" style="whiteSpace=wrap;html=1;aspect=fixed;align=center;" vertex="1" parent="8hIl0CC6JlZEm_kitmmf-1">
                    <mxGeometry x="260" y="190" width="100" height="100" as="geometry"/>
                </mxCell>
                <mxCell id="8hIl0CC6JlZEm_kitmmf-25" value="" style="whiteSpace=wrap;html=1;aspect=fixed;align=center;" vertex="1" parent="8hIl0CC6JlZEm_kitmmf-1">
                    <mxGeometry x="250" y="200" width="100" height="100" as="geometry"/>
                </mxCell>
                <mxCell id="8hIl0CC6JlZEm_kitmmf-26" value="" style="whiteSpace=wrap;html=1;aspect=fixed;align=center;" vertex="1" parent="8hIl0CC6JlZEm_kitmmf-1">
                    <mxGeometry x="240" y="210" width="100" height="100" as="geometry"/>
                </mxCell>
                <mxCell id="8hIl0CC6JlZEm_kitmmf-27" value="Каталоги таблиц страниц" style="text;html=1;strokeColor=none;fillColor=none;align=center;verticalAlign=middle;whiteSpace=wrap;rounded=0;" vertex="1" parent="8hIl0CC6JlZEm_kitmmf-1">
                    <mxGeometry x="360" y="310" width="70" height="40" as="geometry"/>
                </mxCell>
                <mxCell id="8hIl0CC6JlZEm_kitmmf-28" value="PDE" style="text;html=1;strokeColor=none;fillColor=none;align=center;verticalAlign=middle;whiteSpace=wrap;rounded=0;" vertex="1" parent="8hIl0CC6JlZEm_kitmmf-1">
                    <mxGeometry x="270" y="340" width="40" height="20" as="geometry"/>
                </mxCell>
                <mxCell id="8hIl0CC6JlZEm_kitmmf-32" style="edgeStyle=orthogonalEdgeStyle;rounded=0;orthogonalLoop=1;jettySize=auto;html=1;entryX=0;entryY=0.5;entryDx=0;entryDy=0;" edge="1" parent="8hIl0CC6JlZEm_kitmmf-1" source="8hIl0CC6JlZEm_kitmmf-29" target="8hIl0CC6JlZEm_kitmmf-26">
                    <mxGeometry relative="1" as="geometry">
                        <Array as="points">
                            <mxPoint x="195" y="260"/>
                            <mxPoint x="220" y="260"/>
                            <mxPoint x="220" y="260"/>
                        </Array>
                    </mxGeometry>
                </mxCell>
                <mxCell id="8hIl0CC6JlZEm_kitmmf-29" value="+" style="ellipse;whiteSpace=wrap;html=1;aspect=fixed;align=center;" vertex="1" parent="8hIl0CC6JlZEm_kitmmf-1">
                    <mxGeometry x="180" y="185" width="30" height="30" as="geometry"/>
                </mxCell>
                <mxCell id="8hIl0CC6JlZEm_kitmmf-43" style="edgeStyle=orthogonalEdgeStyle;rounded=0;orthogonalLoop=1;jettySize=auto;html=1;entryX=0;entryY=0.5;entryDx=0;entryDy=0;" edge="1" parent="8hIl0CC6JlZEm_kitmmf-1" source="8hIl0CC6JlZEm_kitmmf-33" target="8hIl0CC6JlZEm_kitmmf-41">
                    <mxGeometry relative="1" as="geometry"/>
                </mxCell>
                <mxCell id="8hIl0CC6JlZEm_kitmmf-33" value="PFN" style="rounded=0;whiteSpace=wrap;html=1;align=center;" vertex="1" parent="8hIl0CC6JlZEm_kitmmf-1">
                    <mxGeometry x="240" y="250" width="100" height="20" as="geometry"/>
                </mxCell>
                <mxCell id="8hIl0CC6JlZEm_kitmmf-34" value="512 элементов" style="text;html=1;strokeColor=none;fillColor=none;align=center;verticalAlign=middle;whiteSpace=wrap;rounded=0;" vertex="1" parent="8hIl0CC6JlZEm_kitmmf-1">
                    <mxGeometry x="220" y="310" width="90" height="20" as="geometry"/>
                </mxCell>
                <mxCell id="8hIl0CC6JlZEm_kitmmf-35" value="" style="whiteSpace=wrap;html=1;aspect=fixed;align=center;" vertex="1" parent="8hIl0CC6JlZEm_kitmmf-1">
                    <mxGeometry x="550" y="185" width="115" height="115" as="geometry"/>
                </mxCell>
                <mxCell id="8hIl0CC6JlZEm_kitmmf-36" value="" style="whiteSpace=wrap;html=1;aspect=fixed;align=center;" vertex="1" parent="8hIl0CC6JlZEm_kitmmf-1">
                    <mxGeometry x="540" y="195" width="115" height="115" as="geometry"/>
                </mxCell>
                <mxCell id="8hIl0CC6JlZEm_kitmmf-37" value="" style="whiteSpace=wrap;html=1;aspect=fixed;align=center;" vertex="1" parent="8hIl0CC6JlZEm_kitmmf-1">
                    <mxGeometry x="530" y="205" width="115" height="115" as="geometry"/>
                </mxCell>
                <mxCell id="8hIl0CC6JlZEm_kitmmf-38" value="" style="whiteSpace=wrap;html=1;aspect=fixed;align=center;" vertex="1" parent="8hIl0CC6JlZEm_kitmmf-1">
                    <mxGeometry x="520" y="215" width="115" height="115" as="geometry"/>
                </mxCell>
                <mxCell id="8hIl0CC6JlZEm_kitmmf-39" value="" style="whiteSpace=wrap;html=1;aspect=fixed;align=center;" vertex="1" parent="8hIl0CC6JlZEm_kitmmf-1">
                    <mxGeometry x="510" y="222.5" width="115" height="115" as="geometry"/>
                </mxCell>
                <mxCell id="8hIl0CC6JlZEm_kitmmf-49" style="edgeStyle=orthogonalEdgeStyle;rounded=0;orthogonalLoop=1;jettySize=auto;html=1;" edge="1" parent="8hIl0CC6JlZEm_kitmmf-1" source="8hIl0CC6JlZEm_kitmmf-40" target="8hIl0CC6JlZEm_kitmmf-48">
                    <mxGeometry relative="1" as="geometry"/>
                </mxCell>
                <mxCell id="8hIl0CC6JlZEm_kitmmf-40" value="PFN" style="rounded=0;whiteSpace=wrap;html=1;align=center;" vertex="1" parent="8hIl0CC6JlZEm_kitmmf-1">
                    <mxGeometry x="510" y="260" width="115" height="27" as="geometry"/>
                </mxCell>
                <mxCell id="8hIl0CC6JlZEm_kitmmf-44" style="edgeStyle=orthogonalEdgeStyle;rounded=0;orthogonalLoop=1;jettySize=auto;html=1;" edge="1" parent="8hIl0CC6JlZEm_kitmmf-1" source="8hIl0CC6JlZEm_kitmmf-41" target="8hIl0CC6JlZEm_kitmmf-40">
                    <mxGeometry relative="1" as="geometry"/>
                </mxCell>
                <mxCell id="8hIl0CC6JlZEm_kitmmf-41" value="+" style="ellipse;whiteSpace=wrap;html=1;aspect=fixed;align=center;" vertex="1" parent="8hIl0CC6JlZEm_kitmmf-1">
                    <mxGeometry x="409" y="245" width="30" height="30" as="geometry"/>
                </mxCell>
                <mxCell id="8hIl0CC6JlZEm_kitmmf-45" value="PTE" style="text;html=1;strokeColor=none;fillColor=none;align=center;verticalAlign=middle;whiteSpace=wrap;rounded=0;" vertex="1" parent="8hIl0CC6JlZEm_kitmmf-1">
                    <mxGeometry x="548" y="350" width="40" height="20" as="geometry"/>
                </mxCell>
                <mxCell id="8hIl0CC6JlZEm_kitmmf-46" value="Таблица страниц" style="text;html=1;strokeColor=none;fillColor=none;align=center;verticalAlign=middle;whiteSpace=wrap;rounded=0;" vertex="1" parent="8hIl0CC6JlZEm_kitmmf-1">
                    <mxGeometry x="515" y="370" width="120" height="20" as="geometry"/>
                </mxCell>
                <mxCell id="8hIl0CC6JlZEm_kitmmf-51" style="edgeStyle=orthogonalEdgeStyle;rounded=0;orthogonalLoop=1;jettySize=auto;html=1;" edge="1" parent="8hIl0CC6JlZEm_kitmmf-1" source="8hIl0CC6JlZEm_kitmmf-48">
                    <mxGeometry relative="1" as="geometry">
                        <mxPoint x="790" y="272" as="targetPoint"/>
                    </mxGeometry>
                </mxCell>
                <mxCell id="8hIl0CC6JlZEm_kitmmf-48" value="+" style="ellipse;whiteSpace=wrap;html=1;aspect=fixed;align=center;" vertex="1" parent="8hIl0CC6JlZEm_kitmmf-1">
                    <mxGeometry x="710" y="257" width="30" height="30" as="geometry"/>
                </mxCell>
                <mxCell id="8hIl0CC6JlZEm_kitmmf-52" value="Физический адрес" style="text;html=1;strokeColor=none;fillColor=none;align=center;verticalAlign=middle;whiteSpace=wrap;rounded=0;" vertex="1" parent="8hIl0CC6JlZEm_kitmmf-1">
                    <mxGeometry x="800" y="263" width="40" height="20" as="geometry"/>
                </mxCell>
                <mxCell id="8hIl0CC6JlZEm_kitmmf-53" value="5р" style="rounded=0;whiteSpace=wrap;html=1;align=center;" vertex="1" parent="8hIl0CC6JlZEm_kitmmf-1">
                    <mxGeometry x="910" y="70" width="30" height="20" as="geometry"/>
                </mxCell>
                <mxCell id="8hIl0CC6JlZEm_kitmmf-54" value="PAE" style="text;html=1;strokeColor=none;fillColor=none;align=center;verticalAlign=middle;whiteSpace=wrap;rounded=0;" vertex="1" parent="8hIl0CC6JlZEm_kitmmf-1">
                    <mxGeometry x="905" y="90" width="40" height="20" as="geometry"/>
                </mxCell>
            </root>
        </mxGraphModel>
    </diagram>
    <diagram id="Yc1bLpDAcEOl1DaZQwD0" name="Page-5">
        <mxGraphModel dx="1238" dy="605" grid="1" gridSize="10" guides="1" tooltips="1" connect="1" arrows="1" fold="1" page="1" pageScale="1" pageWidth="827" pageHeight="1169" math="0" shadow="0">
            <root>
                <mxCell id="xpzYnSMQMzNkDp9XUoP4-0"/>
                <mxCell id="xpzYnSMQMzNkDp9XUoP4-1" parent="xpzYnSMQMzNkDp9XUoP4-0"/>
                <mxCell id="xpzYnSMQMzNkDp9XUoP4-2" value="" style="rounded=0;whiteSpace=wrap;html=1;align=center;" vertex="1" parent="xpzYnSMQMzNkDp9XUoP4-1">
                    <mxGeometry x="200" y="80" width="80" height="40" as="geometry"/>
                </mxCell>
                <mxCell id="xpzYnSMQMzNkDp9XUoP4-3" value="" style="rounded=0;whiteSpace=wrap;html=1;align=center;" vertex="1" parent="xpzYnSMQMzNkDp9XUoP4-1">
                    <mxGeometry x="280" y="80" width="80" height="40" as="geometry"/>
                </mxCell>
                <mxCell id="xpzYnSMQMzNkDp9XUoP4-4" value="" style="rounded=0;whiteSpace=wrap;html=1;align=center;" vertex="1" parent="xpzYnSMQMzNkDp9XUoP4-1">
                    <mxGeometry x="360" y="80" width="80" height="40" as="geometry"/>
                </mxCell>
                <mxCell id="xpzYnSMQMzNkDp9XUoP4-5" value="" style="rounded=0;whiteSpace=wrap;html=1;align=center;" vertex="1" parent="xpzYnSMQMzNkDp9XUoP4-1">
                    <mxGeometry x="440" y="80" width="80" height="40" as="geometry"/>
                </mxCell>
                <mxCell id="xpzYnSMQMzNkDp9XUoP4-6" value="" style="rounded=0;whiteSpace=wrap;html=1;align=center;" vertex="1" parent="xpzYnSMQMzNkDp9XUoP4-1">
                    <mxGeometry x="200" y="120" width="80" height="40" as="geometry"/>
                </mxCell>
                <mxCell id="xpzYnSMQMzNkDp9XUoP4-7" value="" style="rounded=0;whiteSpace=wrap;html=1;align=center;" vertex="1" parent="xpzYnSMQMzNkDp9XUoP4-1">
                    <mxGeometry x="280" y="120" width="80" height="40" as="geometry"/>
                </mxCell>
                <mxCell id="xpzYnSMQMzNkDp9XUoP4-8" value="" style="rounded=0;whiteSpace=wrap;html=1;align=center;" vertex="1" parent="xpzYnSMQMzNkDp9XUoP4-1">
                    <mxGeometry x="360" y="120" width="80" height="40" as="geometry"/>
                </mxCell>
                <mxCell id="xpzYnSMQMzNkDp9XUoP4-9" value="" style="rounded=0;whiteSpace=wrap;html=1;align=center;" vertex="1" parent="xpzYnSMQMzNkDp9XUoP4-1">
                    <mxGeometry x="440" y="120" width="80" height="40" as="geometry"/>
                </mxCell>
                <mxCell id="xpzYnSMQMzNkDp9XUoP4-10" value="" style="rounded=0;whiteSpace=wrap;html=1;align=center;" vertex="1" parent="xpzYnSMQMzNkDp9XUoP4-1">
                    <mxGeometry x="200" y="160" width="80" height="40" as="geometry"/>
                </mxCell>
                <mxCell id="xpzYnSMQMzNkDp9XUoP4-11" value="" style="rounded=0;whiteSpace=wrap;html=1;align=center;" vertex="1" parent="xpzYnSMQMzNkDp9XUoP4-1">
                    <mxGeometry x="280" y="160" width="80" height="40" as="geometry"/>
                </mxCell>
                <mxCell id="xpzYnSMQMzNkDp9XUoP4-12" value="" style="rounded=0;whiteSpace=wrap;html=1;align=center;" vertex="1" parent="xpzYnSMQMzNkDp9XUoP4-1">
                    <mxGeometry x="360" y="160" width="80" height="40" as="geometry"/>
                </mxCell>
                <mxCell id="xpzYnSMQMzNkDp9XUoP4-13" value="" style="rounded=0;whiteSpace=wrap;html=1;align=center;" vertex="1" parent="xpzYnSMQMzNkDp9XUoP4-1">
                    <mxGeometry x="440" y="160" width="80" height="40" as="geometry"/>
                </mxCell>
                <mxCell id="xpzYnSMQMzNkDp9XUoP4-14" value="L0" style="rounded=0;whiteSpace=wrap;html=1;align=center;" vertex="1" parent="xpzYnSMQMzNkDp9XUoP4-1">
                    <mxGeometry x="200" y="200" width="80" height="40" as="geometry"/>
                </mxCell>
                <mxCell id="xpzYnSMQMzNkDp9XUoP4-15" value="L1" style="rounded=0;whiteSpace=wrap;html=1;align=center;" vertex="1" parent="xpzYnSMQMzNkDp9XUoP4-1">
                    <mxGeometry x="280" y="200" width="80" height="40" as="geometry"/>
                </mxCell>
                <mxCell id="xpzYnSMQMzNkDp9XUoP4-16" value="L2" style="rounded=0;whiteSpace=wrap;html=1;align=center;" vertex="1" parent="xpzYnSMQMzNkDp9XUoP4-1">
                    <mxGeometry x="360" y="200" width="80" height="40" as="geometry"/>
                </mxCell>
                <mxCell id="xpzYnSMQMzNkDp9XUoP4-107" style="edgeStyle=orthogonalEdgeStyle;rounded=0;orthogonalLoop=1;jettySize=auto;html=1;entryX=0;entryY=0.5;entryDx=0;entryDy=0;startArrow=classic;startFill=1;" edge="1" parent="xpzYnSMQMzNkDp9XUoP4-1" source="xpzYnSMQMzNkDp9XUoP4-17" target="xpzYnSMQMzNkDp9XUoP4-102">
                    <mxGeometry relative="1" as="geometry"/>
                </mxCell>
                <mxCell id="xpzYnSMQMzNkDp9XUoP4-17" value="L3" style="rounded=0;whiteSpace=wrap;html=1;align=center;" vertex="1" parent="xpzYnSMQMzNkDp9XUoP4-1">
                    <mxGeometry x="440" y="200" width="80" height="40" as="geometry"/>
                </mxCell>
                <mxCell id="xpzYnSMQMzNkDp9XUoP4-18" value="" style="rounded=0;whiteSpace=wrap;html=1;align=center;" vertex="1" parent="xpzYnSMQMzNkDp9XUoP4-1">
                    <mxGeometry x="200" y="240" width="80" height="40" as="geometry"/>
                </mxCell>
                <mxCell id="xpzYnSMQMzNkDp9XUoP4-19" value="" style="rounded=0;whiteSpace=wrap;html=1;align=center;" vertex="1" parent="xpzYnSMQMzNkDp9XUoP4-1">
                    <mxGeometry x="280" y="240" width="80" height="40" as="geometry"/>
                </mxCell>
                <mxCell id="xpzYnSMQMzNkDp9XUoP4-20" value="" style="rounded=0;whiteSpace=wrap;html=1;align=center;" vertex="1" parent="xpzYnSMQMzNkDp9XUoP4-1">
                    <mxGeometry x="360" y="240" width="80" height="40" as="geometry"/>
                </mxCell>
                <mxCell id="xpzYnSMQMzNkDp9XUoP4-21" value="" style="rounded=0;whiteSpace=wrap;html=1;align=center;" vertex="1" parent="xpzYnSMQMzNkDp9XUoP4-1">
                    <mxGeometry x="440" y="240" width="80" height="40" as="geometry"/>
                </mxCell>
                <mxCell id="xpzYnSMQMzNkDp9XUoP4-22" value="" style="rounded=0;whiteSpace=wrap;html=1;align=center;" vertex="1" parent="xpzYnSMQMzNkDp9XUoP4-1">
                    <mxGeometry x="200" y="280" width="80" height="40" as="geometry"/>
                </mxCell>
                <mxCell id="xpzYnSMQMzNkDp9XUoP4-23" value="" style="rounded=0;whiteSpace=wrap;html=1;align=center;" vertex="1" parent="xpzYnSMQMzNkDp9XUoP4-1">
                    <mxGeometry x="280" y="280" width="80" height="40" as="geometry"/>
                </mxCell>
                <mxCell id="xpzYnSMQMzNkDp9XUoP4-24" value="" style="rounded=0;whiteSpace=wrap;html=1;align=center;" vertex="1" parent="xpzYnSMQMzNkDp9XUoP4-1">
                    <mxGeometry x="360" y="280" width="80" height="40" as="geometry"/>
                </mxCell>
                <mxCell id="xpzYnSMQMzNkDp9XUoP4-25" value="" style="rounded=0;whiteSpace=wrap;html=1;align=center;" vertex="1" parent="xpzYnSMQMzNkDp9XUoP4-1">
                    <mxGeometry x="440" y="280" width="80" height="40" as="geometry"/>
                </mxCell>
                <mxCell id="xpzYnSMQMzNkDp9XUoP4-26" value="" style="rounded=0;whiteSpace=wrap;html=1;align=center;" vertex="1" parent="xpzYnSMQMzNkDp9XUoP4-1">
                    <mxGeometry x="200" y="320" width="80" height="40" as="geometry"/>
                </mxCell>
                <mxCell id="xpzYnSMQMzNkDp9XUoP4-27" value="" style="rounded=0;whiteSpace=wrap;html=1;align=center;" vertex="1" parent="xpzYnSMQMzNkDp9XUoP4-1">
                    <mxGeometry x="280" y="320" width="80" height="40" as="geometry"/>
                </mxCell>
                <mxCell id="xpzYnSMQMzNkDp9XUoP4-28" value="" style="rounded=0;whiteSpace=wrap;html=1;align=center;" vertex="1" parent="xpzYnSMQMzNkDp9XUoP4-1">
                    <mxGeometry x="360" y="320" width="80" height="40" as="geometry"/>
                </mxCell>
                <mxCell id="xpzYnSMQMzNkDp9XUoP4-29" value="" style="rounded=0;whiteSpace=wrap;html=1;align=center;" vertex="1" parent="xpzYnSMQMzNkDp9XUoP4-1">
                    <mxGeometry x="440" y="320" width="80" height="40" as="geometry"/>
                </mxCell>
                <mxCell id="xpzYnSMQMzNkDp9XUoP4-30" value="" style="rounded=0;whiteSpace=wrap;html=1;align=center;" vertex="1" parent="xpzYnSMQMzNkDp9XUoP4-1">
                    <mxGeometry x="200" y="360" width="80" height="40" as="geometry"/>
                </mxCell>
                <mxCell id="xpzYnSMQMzNkDp9XUoP4-31" value="" style="rounded=0;whiteSpace=wrap;html=1;align=center;" vertex="1" parent="xpzYnSMQMzNkDp9XUoP4-1">
                    <mxGeometry x="280" y="360" width="80" height="40" as="geometry"/>
                </mxCell>
                <mxCell id="xpzYnSMQMzNkDp9XUoP4-32" value="" style="rounded=0;whiteSpace=wrap;html=1;align=center;" vertex="1" parent="xpzYnSMQMzNkDp9XUoP4-1">
                    <mxGeometry x="360" y="360" width="80" height="40" as="geometry"/>
                </mxCell>
                <mxCell id="xpzYnSMQMzNkDp9XUoP4-33" value="" style="rounded=0;whiteSpace=wrap;html=1;align=center;" vertex="1" parent="xpzYnSMQMzNkDp9XUoP4-1">
                    <mxGeometry x="440" y="360" width="80" height="40" as="geometry"/>
                </mxCell>
                <mxCell id="xpzYnSMQMzNkDp9XUoP4-34" value="" style="rounded=0;whiteSpace=wrap;html=1;align=center;" vertex="1" parent="xpzYnSMQMzNkDp9XUoP4-1">
                    <mxGeometry x="600" y="80" width="80" height="40" as="geometry"/>
                </mxCell>
                <mxCell id="xpzYnSMQMzNkDp9XUoP4-35" value="" style="rounded=0;whiteSpace=wrap;html=1;align=center;" vertex="1" parent="xpzYnSMQMzNkDp9XUoP4-1">
                    <mxGeometry x="680" y="80" width="80" height="40" as="geometry"/>
                </mxCell>
                <mxCell id="xpzYnSMQMzNkDp9XUoP4-36" value="" style="rounded=0;whiteSpace=wrap;html=1;align=center;" vertex="1" parent="xpzYnSMQMzNkDp9XUoP4-1">
                    <mxGeometry x="760" y="80" width="80" height="40" as="geometry"/>
                </mxCell>
                <mxCell id="xpzYnSMQMzNkDp9XUoP4-37" value="" style="rounded=0;whiteSpace=wrap;html=1;align=center;" vertex="1" parent="xpzYnSMQMzNkDp9XUoP4-1">
                    <mxGeometry x="840" y="80" width="80" height="40" as="geometry"/>
                </mxCell>
                <mxCell id="xpzYnSMQMzNkDp9XUoP4-38" value="" style="rounded=0;whiteSpace=wrap;html=1;align=center;" vertex="1" parent="xpzYnSMQMzNkDp9XUoP4-1">
                    <mxGeometry x="600" y="120" width="80" height="40" as="geometry"/>
                </mxCell>
                <mxCell id="xpzYnSMQMzNkDp9XUoP4-39" value="" style="rounded=0;whiteSpace=wrap;html=1;align=center;" vertex="1" parent="xpzYnSMQMzNkDp9XUoP4-1">
                    <mxGeometry x="680" y="120" width="80" height="40" as="geometry"/>
                </mxCell>
                <mxCell id="xpzYnSMQMzNkDp9XUoP4-40" value="" style="rounded=0;whiteSpace=wrap;html=1;align=center;" vertex="1" parent="xpzYnSMQMzNkDp9XUoP4-1">
                    <mxGeometry x="760" y="120" width="80" height="40" as="geometry"/>
                </mxCell>
                <mxCell id="xpzYnSMQMzNkDp9XUoP4-41" value="" style="rounded=0;whiteSpace=wrap;html=1;align=center;" vertex="1" parent="xpzYnSMQMzNkDp9XUoP4-1">
                    <mxGeometry x="840" y="120" width="80" height="40" as="geometry"/>
                </mxCell>
                <mxCell id="xpzYnSMQMzNkDp9XUoP4-42" value="" style="rounded=0;whiteSpace=wrap;html=1;align=center;" vertex="1" parent="xpzYnSMQMzNkDp9XUoP4-1">
                    <mxGeometry x="600" y="160" width="80" height="40" as="geometry"/>
                </mxCell>
                <mxCell id="xpzYnSMQMzNkDp9XUoP4-43" value="" style="rounded=0;whiteSpace=wrap;html=1;align=center;" vertex="1" parent="xpzYnSMQMzNkDp9XUoP4-1">
                    <mxGeometry x="680" y="160" width="80" height="40" as="geometry"/>
                </mxCell>
                <mxCell id="xpzYnSMQMzNkDp9XUoP4-44" value="" style="rounded=0;whiteSpace=wrap;html=1;align=center;" vertex="1" parent="xpzYnSMQMzNkDp9XUoP4-1">
                    <mxGeometry x="760" y="160" width="80" height="40" as="geometry"/>
                </mxCell>
                <mxCell id="xpzYnSMQMzNkDp9XUoP4-45" value="" style="rounded=0;whiteSpace=wrap;html=1;align=center;" vertex="1" parent="xpzYnSMQMzNkDp9XUoP4-1">
                    <mxGeometry x="840" y="160" width="80" height="40" as="geometry"/>
                </mxCell>
                <mxCell id="xpzYnSMQMzNkDp9XUoP4-46" value="L0" style="rounded=0;whiteSpace=wrap;html=1;align=center;" vertex="1" parent="xpzYnSMQMzNkDp9XUoP4-1">
                    <mxGeometry x="600" y="200" width="80" height="40" as="geometry"/>
                </mxCell>
                <mxCell id="xpzYnSMQMzNkDp9XUoP4-47" value="L1" style="rounded=0;whiteSpace=wrap;html=1;align=center;" vertex="1" parent="xpzYnSMQMzNkDp9XUoP4-1">
                    <mxGeometry x="680" y="200" width="80" height="40" as="geometry"/>
                </mxCell>
                <mxCell id="xpzYnSMQMzNkDp9XUoP4-48" value="L2" style="rounded=0;whiteSpace=wrap;html=1;align=center;" vertex="1" parent="xpzYnSMQMzNkDp9XUoP4-1">
                    <mxGeometry x="760" y="200" width="80" height="40" as="geometry"/>
                </mxCell>
                <mxCell id="xpzYnSMQMzNkDp9XUoP4-49" value="L3" style="rounded=0;whiteSpace=wrap;html=1;align=center;" vertex="1" parent="xpzYnSMQMzNkDp9XUoP4-1">
                    <mxGeometry x="840" y="200" width="80" height="40" as="geometry"/>
                </mxCell>
                <mxCell id="xpzYnSMQMzNkDp9XUoP4-50" value="" style="rounded=0;whiteSpace=wrap;html=1;align=center;" vertex="1" parent="xpzYnSMQMzNkDp9XUoP4-1">
                    <mxGeometry x="600" y="240" width="80" height="40" as="geometry"/>
                </mxCell>
                <mxCell id="xpzYnSMQMzNkDp9XUoP4-51" value="" style="rounded=0;whiteSpace=wrap;html=1;align=center;" vertex="1" parent="xpzYnSMQMzNkDp9XUoP4-1">
                    <mxGeometry x="680" y="240" width="80" height="40" as="geometry"/>
                </mxCell>
                <mxCell id="xpzYnSMQMzNkDp9XUoP4-52" value="" style="rounded=0;whiteSpace=wrap;html=1;align=center;" vertex="1" parent="xpzYnSMQMzNkDp9XUoP4-1">
                    <mxGeometry x="760" y="240" width="80" height="40" as="geometry"/>
                </mxCell>
                <mxCell id="xpzYnSMQMzNkDp9XUoP4-53" value="" style="rounded=0;whiteSpace=wrap;html=1;align=center;" vertex="1" parent="xpzYnSMQMzNkDp9XUoP4-1">
                    <mxGeometry x="840" y="240" width="80" height="40" as="geometry"/>
                </mxCell>
                <mxCell id="xpzYnSMQMzNkDp9XUoP4-54" value="" style="rounded=0;whiteSpace=wrap;html=1;align=center;" vertex="1" parent="xpzYnSMQMzNkDp9XUoP4-1">
                    <mxGeometry x="600" y="280" width="80" height="40" as="geometry"/>
                </mxCell>
                <mxCell id="xpzYnSMQMzNkDp9XUoP4-55" value="" style="rounded=0;whiteSpace=wrap;html=1;align=center;" vertex="1" parent="xpzYnSMQMzNkDp9XUoP4-1">
                    <mxGeometry x="680" y="280" width="80" height="40" as="geometry"/>
                </mxCell>
                <mxCell id="xpzYnSMQMzNkDp9XUoP4-56" value="" style="rounded=0;whiteSpace=wrap;html=1;align=center;" vertex="1" parent="xpzYnSMQMzNkDp9XUoP4-1">
                    <mxGeometry x="760" y="280" width="80" height="40" as="geometry"/>
                </mxCell>
                <mxCell id="xpzYnSMQMzNkDp9XUoP4-57" value="" style="rounded=0;whiteSpace=wrap;html=1;align=center;" vertex="1" parent="xpzYnSMQMzNkDp9XUoP4-1">
                    <mxGeometry x="840" y="280" width="80" height="40" as="geometry"/>
                </mxCell>
                <mxCell id="xpzYnSMQMzNkDp9XUoP4-58" value="" style="rounded=0;whiteSpace=wrap;html=1;align=center;" vertex="1" parent="xpzYnSMQMzNkDp9XUoP4-1">
                    <mxGeometry x="600" y="320" width="80" height="40" as="geometry"/>
                </mxCell>
                <mxCell id="xpzYnSMQMzNkDp9XUoP4-59" value="" style="rounded=0;whiteSpace=wrap;html=1;align=center;" vertex="1" parent="xpzYnSMQMzNkDp9XUoP4-1">
                    <mxGeometry x="680" y="320" width="80" height="40" as="geometry"/>
                </mxCell>
                <mxCell id="xpzYnSMQMzNkDp9XUoP4-60" value="" style="rounded=0;whiteSpace=wrap;html=1;align=center;" vertex="1" parent="xpzYnSMQMzNkDp9XUoP4-1">
                    <mxGeometry x="760" y="320" width="80" height="40" as="geometry"/>
                </mxCell>
                <mxCell id="xpzYnSMQMzNkDp9XUoP4-61" value="" style="rounded=0;whiteSpace=wrap;html=1;align=center;" vertex="1" parent="xpzYnSMQMzNkDp9XUoP4-1">
                    <mxGeometry x="840" y="320" width="80" height="40" as="geometry"/>
                </mxCell>
                <mxCell id="xpzYnSMQMzNkDp9XUoP4-62" value="" style="rounded=0;whiteSpace=wrap;html=1;align=center;" vertex="1" parent="xpzYnSMQMzNkDp9XUoP4-1">
                    <mxGeometry x="600" y="360" width="80" height="40" as="geometry"/>
                </mxCell>
                <mxCell id="xpzYnSMQMzNkDp9XUoP4-63" value="" style="rounded=0;whiteSpace=wrap;html=1;align=center;" vertex="1" parent="xpzYnSMQMzNkDp9XUoP4-1">
                    <mxGeometry x="680" y="360" width="80" height="40" as="geometry"/>
                </mxCell>
                <mxCell id="xpzYnSMQMzNkDp9XUoP4-64" value="" style="rounded=0;whiteSpace=wrap;html=1;align=center;" vertex="1" parent="xpzYnSMQMzNkDp9XUoP4-1">
                    <mxGeometry x="760" y="360" width="80" height="40" as="geometry"/>
                </mxCell>
                <mxCell id="xpzYnSMQMzNkDp9XUoP4-65" value="" style="rounded=0;whiteSpace=wrap;html=1;align=center;" vertex="1" parent="xpzYnSMQMzNkDp9XUoP4-1">
                    <mxGeometry x="840" y="360" width="80" height="40" as="geometry"/>
                </mxCell>
                <mxCell id="xpzYnSMQMzNkDp9XUoP4-66" value="" style="rounded=0;whiteSpace=wrap;html=1;align=center;" vertex="1" parent="xpzYnSMQMzNkDp9XUoP4-1">
                    <mxGeometry x="-40" y="80" width="40" height="40" as="geometry"/>
                </mxCell>
                <mxCell id="xpzYnSMQMzNkDp9XUoP4-67" value="" style="rounded=0;whiteSpace=wrap;html=1;align=center;" vertex="1" parent="xpzYnSMQMzNkDp9XUoP4-1">
                    <mxGeometry y="80" width="40" height="40" as="geometry"/>
                </mxCell>
                <mxCell id="xpzYnSMQMzNkDp9XUoP4-68" value="" style="rounded=0;whiteSpace=wrap;html=1;align=center;" vertex="1" parent="xpzYnSMQMzNkDp9XUoP4-1">
                    <mxGeometry x="40" y="80" width="40" height="40" as="geometry"/>
                </mxCell>
                <mxCell id="xpzYnSMQMzNkDp9XUoP4-69" value="" style="rounded=0;whiteSpace=wrap;html=1;align=center;" vertex="1" parent="xpzYnSMQMzNkDp9XUoP4-1">
                    <mxGeometry x="80" y="80" width="40" height="40" as="geometry"/>
                </mxCell>
                <mxCell id="xpzYnSMQMzNkDp9XUoP4-70" value="" style="rounded=0;whiteSpace=wrap;html=1;align=center;" vertex="1" parent="xpzYnSMQMzNkDp9XUoP4-1">
                    <mxGeometry x="-40" y="120" width="40" height="40" as="geometry"/>
                </mxCell>
                <mxCell id="xpzYnSMQMzNkDp9XUoP4-71" value="" style="rounded=0;whiteSpace=wrap;html=1;align=center;" vertex="1" parent="xpzYnSMQMzNkDp9XUoP4-1">
                    <mxGeometry y="120" width="40" height="40" as="geometry"/>
                </mxCell>
                <mxCell id="xpzYnSMQMzNkDp9XUoP4-72" value="" style="rounded=0;whiteSpace=wrap;html=1;align=center;" vertex="1" parent="xpzYnSMQMzNkDp9XUoP4-1">
                    <mxGeometry x="40" y="120" width="40" height="40" as="geometry"/>
                </mxCell>
                <mxCell id="xpzYnSMQMzNkDp9XUoP4-73" value="" style="rounded=0;whiteSpace=wrap;html=1;align=center;" vertex="1" parent="xpzYnSMQMzNkDp9XUoP4-1">
                    <mxGeometry x="80" y="120" width="40" height="40" as="geometry"/>
                </mxCell>
                <mxCell id="xpzYnSMQMzNkDp9XUoP4-74" value="" style="rounded=0;whiteSpace=wrap;html=1;align=center;" vertex="1" parent="xpzYnSMQMzNkDp9XUoP4-1">
                    <mxGeometry x="-40" y="160" width="40" height="40" as="geometry"/>
                </mxCell>
                <mxCell id="xpzYnSMQMzNkDp9XUoP4-75" value="" style="rounded=0;whiteSpace=wrap;html=1;align=center;" vertex="1" parent="xpzYnSMQMzNkDp9XUoP4-1">
                    <mxGeometry y="160" width="40" height="40" as="geometry"/>
                </mxCell>
                <mxCell id="xpzYnSMQMzNkDp9XUoP4-76" value="" style="rounded=0;whiteSpace=wrap;html=1;align=center;" vertex="1" parent="xpzYnSMQMzNkDp9XUoP4-1">
                    <mxGeometry x="40" y="160" width="40" height="40" as="geometry"/>
                </mxCell>
                <mxCell id="xpzYnSMQMzNkDp9XUoP4-77" value="" style="rounded=0;whiteSpace=wrap;html=1;align=center;" vertex="1" parent="xpzYnSMQMzNkDp9XUoP4-1">
                    <mxGeometry x="80" y="160" width="40" height="40" as="geometry"/>
                </mxCell>
                <mxCell id="xpzYnSMQMzNkDp9XUoP4-78" value="" style="rounded=0;whiteSpace=wrap;html=1;align=center;" vertex="1" parent="xpzYnSMQMzNkDp9XUoP4-1">
                    <mxGeometry x="-40" y="200" width="40" height="40" as="geometry"/>
                </mxCell>
                <mxCell id="xpzYnSMQMzNkDp9XUoP4-79" value="" style="rounded=0;whiteSpace=wrap;html=1;align=center;" vertex="1" parent="xpzYnSMQMzNkDp9XUoP4-1">
                    <mxGeometry y="200" width="40" height="40" as="geometry"/>
                </mxCell>
                <mxCell id="xpzYnSMQMzNkDp9XUoP4-80" value="" style="rounded=0;whiteSpace=wrap;html=1;align=center;" vertex="1" parent="xpzYnSMQMzNkDp9XUoP4-1">
                    <mxGeometry x="40" y="200" width="40" height="40" as="geometry"/>
                </mxCell>
                <mxCell id="xpzYnSMQMzNkDp9XUoP4-81" value="" style="rounded=0;whiteSpace=wrap;html=1;align=center;" vertex="1" parent="xpzYnSMQMzNkDp9XUoP4-1">
                    <mxGeometry x="80" y="200" width="40" height="40" as="geometry"/>
                </mxCell>
                <mxCell id="xpzYnSMQMzNkDp9XUoP4-82" value="" style="rounded=0;whiteSpace=wrap;html=1;align=center;" vertex="1" parent="xpzYnSMQMzNkDp9XUoP4-1">
                    <mxGeometry x="-40" y="240" width="40" height="40" as="geometry"/>
                </mxCell>
                <mxCell id="xpzYnSMQMzNkDp9XUoP4-83" value="" style="rounded=0;whiteSpace=wrap;html=1;align=center;" vertex="1" parent="xpzYnSMQMzNkDp9XUoP4-1">
                    <mxGeometry y="240" width="40" height="40" as="geometry"/>
                </mxCell>
                <mxCell id="xpzYnSMQMzNkDp9XUoP4-84" value="" style="rounded=0;whiteSpace=wrap;html=1;align=center;" vertex="1" parent="xpzYnSMQMzNkDp9XUoP4-1">
                    <mxGeometry x="40" y="240" width="40" height="40" as="geometry"/>
                </mxCell>
                <mxCell id="xpzYnSMQMzNkDp9XUoP4-85" value="" style="rounded=0;whiteSpace=wrap;html=1;align=center;" vertex="1" parent="xpzYnSMQMzNkDp9XUoP4-1">
                    <mxGeometry x="80" y="240" width="40" height="40" as="geometry"/>
                </mxCell>
                <mxCell id="xpzYnSMQMzNkDp9XUoP4-86" value="" style="rounded=0;whiteSpace=wrap;html=1;align=center;" vertex="1" parent="xpzYnSMQMzNkDp9XUoP4-1">
                    <mxGeometry x="-40" y="280" width="40" height="40" as="geometry"/>
                </mxCell>
                <mxCell id="xpzYnSMQMzNkDp9XUoP4-87" value="" style="rounded=0;whiteSpace=wrap;html=1;align=center;" vertex="1" parent="xpzYnSMQMzNkDp9XUoP4-1">
                    <mxGeometry y="280" width="40" height="40" as="geometry"/>
                </mxCell>
                <mxCell id="xpzYnSMQMzNkDp9XUoP4-88" value="" style="rounded=0;whiteSpace=wrap;html=1;align=center;" vertex="1" parent="xpzYnSMQMzNkDp9XUoP4-1">
                    <mxGeometry x="40" y="280" width="40" height="40" as="geometry"/>
                </mxCell>
                <mxCell id="xpzYnSMQMzNkDp9XUoP4-89" value="" style="rounded=0;whiteSpace=wrap;html=1;align=center;" vertex="1" parent="xpzYnSMQMzNkDp9XUoP4-1">
                    <mxGeometry x="80" y="280" width="40" height="40" as="geometry"/>
                </mxCell>
                <mxCell id="xpzYnSMQMzNkDp9XUoP4-90" value="" style="rounded=0;whiteSpace=wrap;html=1;align=center;" vertex="1" parent="xpzYnSMQMzNkDp9XUoP4-1">
                    <mxGeometry x="-40" y="320" width="40" height="40" as="geometry"/>
                </mxCell>
                <mxCell id="xpzYnSMQMzNkDp9XUoP4-91" value="" style="rounded=0;whiteSpace=wrap;html=1;align=center;" vertex="1" parent="xpzYnSMQMzNkDp9XUoP4-1">
                    <mxGeometry y="320" width="40" height="40" as="geometry"/>
                </mxCell>
                <mxCell id="xpzYnSMQMzNkDp9XUoP4-92" value="" style="rounded=0;whiteSpace=wrap;html=1;align=center;" vertex="1" parent="xpzYnSMQMzNkDp9XUoP4-1">
                    <mxGeometry x="40" y="320" width="40" height="40" as="geometry"/>
                </mxCell>
                <mxCell id="xpzYnSMQMzNkDp9XUoP4-93" value="" style="rounded=0;whiteSpace=wrap;html=1;align=center;" vertex="1" parent="xpzYnSMQMzNkDp9XUoP4-1">
                    <mxGeometry x="80" y="320" width="40" height="40" as="geometry"/>
                </mxCell>
                <mxCell id="xpzYnSMQMzNkDp9XUoP4-94" value="" style="rounded=0;whiteSpace=wrap;html=1;align=center;" vertex="1" parent="xpzYnSMQMzNkDp9XUoP4-1">
                    <mxGeometry x="-40" y="360" width="40" height="40" as="geometry"/>
                </mxCell>
                <mxCell id="xpzYnSMQMzNkDp9XUoP4-95" value="" style="rounded=0;whiteSpace=wrap;html=1;align=center;" vertex="1" parent="xpzYnSMQMzNkDp9XUoP4-1">
                    <mxGeometry y="360" width="40" height="40" as="geometry"/>
                </mxCell>
                <mxCell id="xpzYnSMQMzNkDp9XUoP4-96" value="" style="rounded=0;whiteSpace=wrap;html=1;align=center;" vertex="1" parent="xpzYnSMQMzNkDp9XUoP4-1">
                    <mxGeometry x="40" y="360" width="40" height="40" as="geometry"/>
                </mxCell>
                <mxCell id="xpzYnSMQMzNkDp9XUoP4-97" value="" style="rounded=0;whiteSpace=wrap;html=1;align=center;" vertex="1" parent="xpzYnSMQMzNkDp9XUoP4-1">
                    <mxGeometry x="80" y="360" width="40" height="40" as="geometry"/>
                </mxCell>
                <mxCell id="xpzYnSMQMzNkDp9XUoP4-98" value="LRU" style="text;html=1;strokeColor=none;fillColor=none;align=center;verticalAlign=middle;whiteSpace=wrap;rounded=0;" vertex="1" parent="xpzYnSMQMzNkDp9XUoP4-1">
                    <mxGeometry x="40" y="30" width="40" height="20" as="geometry"/>
                </mxCell>
                <mxCell id="xpzYnSMQMzNkDp9XUoP4-99" value="0" style="text;html=1;strokeColor=none;fillColor=none;align=center;verticalAlign=middle;whiteSpace=wrap;rounded=0;" vertex="1" parent="xpzYnSMQMzNkDp9XUoP4-1">
                    <mxGeometry x="580" y="80" width="20" height="40" as="geometry"/>
                </mxCell>
                <mxCell id="xpzYnSMQMzNkDp9XUoP4-100" value="1" style="text;html=1;strokeColor=none;fillColor=none;align=center;verticalAlign=middle;whiteSpace=wrap;rounded=0;" vertex="1" parent="xpzYnSMQMzNkDp9XUoP4-1">
                    <mxGeometry x="580" y="120" width="20" height="40" as="geometry"/>
                </mxCell>
                <mxCell id="xpzYnSMQMzNkDp9XUoP4-101" value="2" style="text;html=1;strokeColor=none;fillColor=none;align=center;verticalAlign=middle;whiteSpace=wrap;rounded=0;" vertex="1" parent="xpzYnSMQMzNkDp9XUoP4-1">
                    <mxGeometry x="580" y="160" width="20" height="40" as="geometry"/>
                </mxCell>
                <mxCell id="xpzYnSMQMzNkDp9XUoP4-102" value="3" style="text;html=1;strokeColor=none;fillColor=none;align=center;verticalAlign=middle;whiteSpace=wrap;rounded=0;" vertex="1" parent="xpzYnSMQMzNkDp9XUoP4-1">
                    <mxGeometry x="580" y="200" width="20" height="40" as="geometry"/>
                </mxCell>
                <mxCell id="xpzYnSMQMzNkDp9XUoP4-103" value="4" style="text;html=1;strokeColor=none;fillColor=none;align=center;verticalAlign=middle;whiteSpace=wrap;rounded=0;" vertex="1" parent="xpzYnSMQMzNkDp9XUoP4-1">
                    <mxGeometry x="580" y="240" width="20" height="40" as="geometry"/>
                </mxCell>
                <mxCell id="xpzYnSMQMzNkDp9XUoP4-104" value="5" style="text;html=1;strokeColor=none;fillColor=none;align=center;verticalAlign=middle;whiteSpace=wrap;rounded=0;" vertex="1" parent="xpzYnSMQMzNkDp9XUoP4-1">
                    <mxGeometry x="580" y="280" width="20" height="40" as="geometry"/>
                </mxCell>
                <mxCell id="xpzYnSMQMzNkDp9XUoP4-105" value="6" style="text;html=1;strokeColor=none;fillColor=none;align=center;verticalAlign=middle;whiteSpace=wrap;rounded=0;" vertex="1" parent="xpzYnSMQMzNkDp9XUoP4-1">
                    <mxGeometry x="580" y="320" width="20" height="40" as="geometry"/>
                </mxCell>
                <mxCell id="xpzYnSMQMzNkDp9XUoP4-106" value="7" style="text;html=1;strokeColor=none;fillColor=none;align=center;verticalAlign=middle;whiteSpace=wrap;rounded=0;" vertex="1" parent="xpzYnSMQMzNkDp9XUoP4-1">
                    <mxGeometry x="580" y="360" width="20" height="40" as="geometry"/>
                </mxCell>
                <mxCell id="xpzYnSMQMzNkDp9XUoP4-109" style="edgeStyle=orthogonalEdgeStyle;rounded=0;orthogonalLoop=1;jettySize=auto;html=1;startArrow=none;startFill=0;endArrow=none;endFill=0;" edge="1" parent="xpzYnSMQMzNkDp9XUoP4-1" source="xpzYnSMQMzNkDp9XUoP4-108" target="xpzYnSMQMzNkDp9XUoP4-66">
                    <mxGeometry relative="1" as="geometry"/>
                </mxCell>
                <mxCell id="xpzYnSMQMzNkDp9XUoP4-108" value="бит достоверности" style="text;html=1;strokeColor=none;fillColor=none;align=center;verticalAlign=middle;whiteSpace=wrap;rounded=0;" vertex="1" parent="xpzYnSMQMzNkDp9XUoP4-1">
                    <mxGeometry x="-100" y="30" width="40" height="20" as="geometry"/>
                </mxCell>
                <mxCell id="xpzYnSMQMzNkDp9XUoP4-110" value="Translation Look aside buffer" style="text;html=1;strokeColor=none;fillColor=none;align=center;verticalAlign=middle;whiteSpace=wrap;rounded=0;" vertex="1" parent="xpzYnSMQMzNkDp9XUoP4-1">
                    <mxGeometry x="240" y="40" width="190" height="20" as="geometry"/>
                </mxCell>
                <mxCell id="xpzYnSMQMzNkDp9XUoP4-111" value="физ адрес" style="rounded=0;whiteSpace=wrap;html=1;align=center;" vertex="1" parent="xpzYnSMQMzNkDp9XUoP4-1">
                    <mxGeometry x="760" y="470" width="80" height="30" as="geometry"/>
                </mxCell>
                <mxCell id="xpzYnSMQMzNkDp9XUoP4-112" style="edgeStyle=orthogonalEdgeStyle;rounded=0;orthogonalLoop=1;jettySize=auto;html=1;exitX=0.5;exitY=1;exitDx=0;exitDy=0;entryX=0.5;entryY=0;entryDx=0;entryDy=0;startArrow=classic;startFill=1;endArrow=classic;endFill=1;" edge="1" parent="xpzYnSMQMzNkDp9XUoP4-1" source="xpzYnSMQMzNkDp9XUoP4-48" target="xpzYnSMQMzNkDp9XUoP4-111">
                    <mxGeometry relative="1" as="geometry"/>
                </mxCell>
                <mxCell id="xpzYnSMQMzNkDp9XUoP4-114" value="вирт адрес" style="rounded=0;whiteSpace=wrap;html=1;align=center;" vertex="1" parent="xpzYnSMQMzNkDp9XUoP4-1">
                    <mxGeometry x="360" y="475" width="80" height="20" as="geometry"/>
                </mxCell>
                <mxCell id="xpzYnSMQMzNkDp9XUoP4-113" style="edgeStyle=orthogonalEdgeStyle;rounded=0;orthogonalLoop=1;jettySize=auto;html=1;exitX=0.5;exitY=1;exitDx=0;exitDy=0;startArrow=classic;startFill=1;endArrow=classic;endFill=1;" edge="1" parent="xpzYnSMQMzNkDp9XUoP4-1" source="xpzYnSMQMzNkDp9XUoP4-16" target="xpzYnSMQMzNkDp9XUoP4-114">
                    <mxGeometry relative="1" as="geometry">
                        <mxPoint x="400" y="520" as="targetPoint"/>
                    </mxGeometry>
                </mxCell>
            </root>
        </mxGraphModel>
    </diagram>
</mxfile>